<?xml version="1.0" encoding="iso-8859-1"?>
<!-- Generator: Adobe Illustrator 16.0.0, SVG Export Plug-In . SVG Version: 6.00 Build 0)  -->
<!DOCTYPE svg PUBLIC "-//W3C//DTD SVG 1.1//EN" "http://www.w3.org/Graphics/SVG/1.1/DTD/svg11.dtd">
<svg version="1.1" id="Capa_1" xmlns="http://www.w3.org/2000/svg" xmlns:xlink="http://www.w3.org/1999/xlink" x="0px" y="0px"
	 width="205.776px" height="205.776px" viewBox="0 0 205.776 205.776" style="enable-background:new 0 0 205.776 205.776;"
	 xml:space="preserve">
<g>
	<path d="M197.173,51.858c0-3.167-2.399-5.679-5.456-6.08V32.954c0-3.443-2.788-6.235-6.235-6.235c-3.446,0-6.235,2.792-6.235,6.235
		v12.663h-2.338V32.954c0-3.443-2.789-6.235-6.235-6.235s-6.235,2.792-6.235,6.235v12.663h-5.688
		c-1.973-4.284-6.277-7.271-11.301-7.271c-5.03,0-9.354,2.987-11.313,7.271h-13.933c4.688-4.844,7.611-11.423,7.611-18.7
		C129.814,12.053,117.758,0,102.889,0C88.025,0,75.965,12.053,75.965,26.917c0,7.276,2.923,13.855,7.611,18.7H69.642
		c-1.964-4.29-6.296-7.271-11.316-7.271c-5.033,0-9.329,2.987-11.299,7.271h-5.687V32.954c0-3.443-2.786-6.235-6.235-6.235
		c-3.446,0-6.235,2.792-6.235,6.235v12.663H26.53V32.954c0-3.443-2.786-6.235-6.235-6.235c-3.446,0-6.235,2.792-6.235,6.235v12.824
		c-3.054,0.401-5.456,2.913-5.456,6.08c0,3.169,2.402,5.681,5.456,6.08v12.826c0,3.44,2.789,6.235,6.235,6.235
		c3.45,0,6.235-2.795,6.235-6.235V58.1h2.338v12.665c0,3.44,2.789,6.235,6.235,6.235c3.45,0,6.235-2.795,6.235-6.235V58.1h5.289
		c1.011,4.957,3.081,8.96,6.396,11.971c4.795,4.335,10.47,5.419,16.13,5.419c1.815,0,3.611-0.125,5.396-0.268v118.083
		c0,6.881,5.586,12.471,12.47,12.471s12.471-5.59,12.471-12.471v-51.191h6.847v51.191c0,6.881,5.587,12.471,12.468,12.471
		c6.887,0,12.471-5.59,12.471-12.471V75.216c1.784,0.149,3.58,0.269,5.395,0.269c5.663,0,11.338-1.084,16.131-5.42
		c3.324-3.011,5.389-7.015,6.399-11.971h5.285v12.665c0,3.44,2.789,6.235,6.235,6.235s6.235-2.795,6.235-6.235V58.094h2.338v12.665
		c0,3.44,2.789,6.235,6.235,6.235s6.235-2.795,6.235-6.235V57.932C194.773,57.539,197.173,55.027,197.173,51.858z"/>
</g>
<g>
</g>
<g>
</g>
<g>
</g>
<g>
</g>
<g>
</g>
<g>
</g>
<g>
</g>
<g>
</g>
<g>
</g>
<g>
</g>
<g>
</g>
<g>
</g>
<g>
</g>
<g>
</g>
<g>
</g>
</svg>
